<mxfile host="app.diagrams.net" modified="2024-04-05T08:13:54.480Z" agent="Mozilla/5.0 (Windows NT 10.0; Win64; x64) AppleWebKit/537.36 (KHTML, like Gecko) Chrome/123.0.0.0 Safari/537.36" etag="wQrtY542De94eymac06O" version="24.2.2" type="github">
  <diagram name="페이지-1" id="iTq08FwdrYarTpHiojYD">
    <mxGraphModel dx="2261" dy="780" grid="1" gridSize="10" guides="1" tooltips="1" connect="1" arrows="1" fold="1" page="1" pageScale="1" pageWidth="827" pageHeight="1169" math="0" shadow="0">
      <root>
        <mxCell id="0" />
        <mxCell id="1" parent="0" />
        <mxCell id="Q2ZMowQD-iI0OwTtWh_3-12" value="" style="edgeStyle=orthogonalEdgeStyle;rounded=0;orthogonalLoop=1;jettySize=auto;html=1;" edge="1" parent="1" source="Q2ZMowQD-iI0OwTtWh_3-6" target="Q2ZMowQD-iI0OwTtWh_3-11">
          <mxGeometry relative="1" as="geometry" />
        </mxCell>
        <mxCell id="Q2ZMowQD-iI0OwTtWh_3-6" value="&lt;span style=&quot;font-size: 13px;&quot;&gt;From &lt;b&gt;target pages&amp;nbsp;&lt;/b&gt;&lt;/span&gt;&lt;div&gt;&lt;span style=&quot;font-size: 13px;&quot;&gt;&lt;b&gt;Elements&lt;/b&gt;&lt;/span&gt;&lt;/div&gt;" style="ellipse;whiteSpace=wrap;html=1;fillColor=#dae8fc;strokeColor=#6c8ebf;" vertex="1" parent="1">
          <mxGeometry x="-780" y="480" width="120" height="80" as="geometry" />
        </mxCell>
        <mxCell id="Q2ZMowQD-iI0OwTtWh_3-14" value="" style="edgeStyle=orthogonalEdgeStyle;rounded=0;orthogonalLoop=1;jettySize=auto;html=1;" edge="1" parent="1" source="Q2ZMowQD-iI0OwTtWh_3-11" target="Q2ZMowQD-iI0OwTtWh_3-13">
          <mxGeometry relative="1" as="geometry">
            <Array as="points">
              <mxPoint x="-480" y="660" />
              <mxPoint x="-480" y="660" />
            </Array>
          </mxGeometry>
        </mxCell>
        <mxCell id="Q2ZMowQD-iI0OwTtWh_3-17" value="Yes" style="edgeLabel;html=1;align=center;verticalAlign=middle;resizable=0;points=[];fontSize=18;fontStyle=0" vertex="1" connectable="0" parent="Q2ZMowQD-iI0OwTtWh_3-14">
          <mxGeometry x="-0.02" relative="1" as="geometry">
            <mxPoint as="offset" />
          </mxGeometry>
        </mxCell>
        <mxCell id="Q2ZMowQD-iI0OwTtWh_3-16" value="" style="edgeStyle=orthogonalEdgeStyle;rounded=0;orthogonalLoop=1;jettySize=auto;html=1;" edge="1" parent="1" source="Q2ZMowQD-iI0OwTtWh_3-11" target="Q2ZMowQD-iI0OwTtWh_3-15">
          <mxGeometry relative="1" as="geometry" />
        </mxCell>
        <mxCell id="Q2ZMowQD-iI0OwTtWh_3-20" value="&lt;font style=&quot;font-size: 18px;&quot;&gt;No&lt;/font&gt;" style="edgeLabel;html=1;align=center;verticalAlign=middle;resizable=0;points=[];" vertex="1" connectable="0" parent="Q2ZMowQD-iI0OwTtWh_3-16">
          <mxGeometry x="-0.0222" y="1" relative="1" as="geometry">
            <mxPoint as="offset" />
          </mxGeometry>
        </mxCell>
        <mxCell id="Q2ZMowQD-iI0OwTtWh_3-11" value="&lt;b&gt;In Reference date?&lt;/b&gt;" style="rhombus;whiteSpace=wrap;html=1;fillColor=#fff2cc;strokeColor=#d6b656;" vertex="1" parent="1">
          <mxGeometry x="-560" y="480" width="160" height="80" as="geometry" />
        </mxCell>
        <mxCell id="Q2ZMowQD-iI0OwTtWh_3-21" style="edgeStyle=orthogonalEdgeStyle;rounded=0;orthogonalLoop=1;jettySize=auto;html=1;exitX=0;exitY=0.5;exitDx=0;exitDy=0;entryX=0;entryY=0.5;entryDx=0;entryDy=0;" edge="1" parent="1" source="Q2ZMowQD-iI0OwTtWh_3-13" target="Q2ZMowQD-iI0OwTtWh_3-11">
          <mxGeometry relative="1" as="geometry">
            <mxPoint x="-570" y="510" as="targetPoint" />
          </mxGeometry>
        </mxCell>
        <mxCell id="Q2ZMowQD-iI0OwTtWh_3-13" value="Search next page" style="whiteSpace=wrap;html=1;fillColor=#d5e8d4;strokeColor=#82b366;" vertex="1" parent="1">
          <mxGeometry x="-540" y="650" width="120" height="60" as="geometry" />
        </mxCell>
        <mxCell id="Q2ZMowQD-iI0OwTtWh_3-15" value="End page search" style="whiteSpace=wrap;html=1;fillColor=#d5e8d4;strokeColor=#82b366;" vertex="1" parent="1">
          <mxGeometry x="-270" y="490" width="120" height="60" as="geometry" />
        </mxCell>
      </root>
    </mxGraphModel>
  </diagram>
</mxfile>
